<?xml version="1.0" encoding="utf-8"?>
<!-- Generator: Adobe Illustrator 19.1.0, SVG Export Plug-In . SVG Version: 6.00 Build 0)  -->
<svg version="1.1" id="Layer_1" xmlns="http://www.w3.org/2000/svg" xmlns:xlink="http://www.w3.org/1999/xlink" x="0px" y="0px"
	 viewBox="-245 257 300 100" style="enable-background:new -245 257 300 100;" xml:space="preserve">
<style type="text/css">
	.st0{fill:#FFFFFF;}
</style>
<g>
	<path class="st0" d="M-78.5,310.4L-78.5,310.4c0-7.4,5.8-13.4,13.6-13.4s13.6,6,13.6,13.3v0.1c0,7.3-5.8,13.3-13.7,13.3
		C-72.7,323.6-78.5,317.6-78.5,310.4z M-57.1,310.4L-57.1,310.4c0-4.6-3.2-8.3-7.8-8.3c-4.7,0-7.7,3.7-7.7,8.1v0.1
		c0,4.5,3.2,8.2,7.8,8.2C-60.1,318.4-57.1,314.8-57.1,310.4z"/>
	<path class="st0" d="M-208.8,315.9V302h-3.2v-4.9h3.1v-6h5.7v6h6.7v4.9h-6.7v13c0,2.2,1.1,3.1,3,3.1c1.3,0,2.4-0.3,3.5-0.8v4.6
		c-1.4,0.8-3,1.3-5.1,1.3C-205.9,323.2-208.8,321.3-208.8,315.9z"/>
	<path class="st0" d="M-166.6,297.2h5.7v25.6h-5.7V297.2z"/>
	<path class="st0" d="M-131.2,288.1h5.7V309l11-11.8h6.9l-10.6,10.8l10.2,14.7h-6.7L-122,312l-3.5,3.7v7.1h-5.7V288.1z"/>
	<path class="st0" d="M-157.2,307.7c0,0-0.5-10.6,11.2-10.6c8.1,0,11,4.9,11,10.6v14.9h-5.7v-13.9c0-3.8-1.9-6.1-5.3-6.1
		c-3.3,0-5.6,2.3-5.6,6.1v14h-5.7L-157.2,307.7L-157.2,307.7z"/>
	<path class="st0" d="M-104.2,307.7c0,0-0.5-10.6,11.2-10.6c8.1,0,11,4.9,11,10.6v14.9h-5.7v-13.9c0-3.8-1.9-6.1-5.3-6.1
		c-3.3,0-5.6,2.3-5.6,6.1v14h-5.7v-15H-104.2z"/>
	<path class="st0" d="M-26.6,288v11.4c-2.1-1.4-4.7-2.2-7.6-2.2c-7.7,0-13.4,5.9-13.4,13.1v0.1c0,7.1,5.6,12.9,13.3,12.9
		c7.5,0,13.1-5.7,13.4-12.6v-0.6V288H-26.6z M-26.6,310.4c0,4.3-2.9,7.9-7.6,7.9c-4.5,0-7.6-3.6-7.6-8v-0.1c0-4.4,2.9-8,7.5-8
		C-29.8,302.2-26.6,305.9-26.6,310.4L-26.6,310.4z"/>
	<path class="st0" d="M-181.6,297.2c-2.3,0-4.1,0.5-5.6,1.2v-10.2h-5.7v20.3v0.1v14.2h5.7h0.1v-14.2c0-3.9,2.3-6.2,5.6-6.2
		c3.4,0,5.4,2.2,5.4,6.1v14.2h5.7v-16C-170.4,301-174.6,297.2-181.6,297.2z"/>
	<circle class="st0" cx="-163.8" cy="291" r="2.8"/>
	<path class="st0" d="M9.3,312.4c0.1-0.7,0.2-1.5,0.2-2.2c0-7.2-5.9-13.1-13.1-13.1c-7.2,0-13.1,5.9-13.1,13.1
		c0,7.2,5.9,13.1,13.1,13.1c5,0,9.4-2.9,11.6-7H1.8c-1.4,1.3-3.3,2.1-5.4,2.1c-3.7,0-6.8-2.5-7.8-5.9H9.3V312.4z M-3.6,302.1
		c3.7,0,6.8,2.5,7.8,5.9h-15.6C-10.5,304.6-7.3,302.1-3.6,302.1z"/>
</g>
<g>
	<path class="st0" d="M14.7,304.7v-5.4h-2v-0.7h4.9v0.7h-2v5.4H14.7z"/>
	<path class="st0" d="M18.3,304.7v-6.2h1.2l1.5,4.4c0.1,0.4,0.2,0.7,0.3,0.9c0.1-0.2,0.2-0.6,0.3-1l1.5-4.3h1.1v6.2h-0.8v-5.2
		l-1.8,5.2h-0.7l-1.8-5.3v5.3C19.1,304.7,18.3,304.7,18.3,304.7z"/>
</g>
</svg>
